#!OML:ASF X:\für Bonn\!DataBase\2005_08_11_Bastian_Final\c3d\Bastian.ASF
:FULLY-SPECIFIED
:DEGREES
338
root -1.11155 2.47473 25.6593 -975.834 -3.02088 -882.903
lowerback 70.539 0.353155 18.5615
upperback 22.0985 -6.59239 6.6392
thorax 5.69903 -11.4101 1.45606
lowerneck -26.9968 -7.4212 -8.08094
upperneck 4.85171 -8.67371 6.65045
head 6.2864 -4.11317 2.29002
rclavicle 2.0276e-014 1.66979e-014
rhumerus -52.3806 38.7173 -106.969
rradius 33.9216
rwrist -15.5515
rhand -31.9736 -8.6633
rfingers 7.12502
rthumb -5.22322 -38.5789
lclavicle 2.0276e-014 1.66979e-014
lhumerus -228.502 -190.598 258.05
lradius 46.193
lwrist 62.093
lhand -36.207 -2.55003
lfingers 7.12502
lthumb -9.30956 27.2244
rfemur -64.0419 -64.3969 20.66
rtibia 149.921
rfoot -17.992 13.0949
rtoes -31.6378
lfemur -63.7591 12.0361 -24.8203
ltibia 111.293
lfoot 5.3948 3.04354
ltoes 27.762
339
root -1.09464 2.46189 25.6548 -976.019 -2.68225 -882.963
lowerback 70.426 0.394716 18.6199
upperback 22.1356 -6.58794 6.71434
thorax 5.75038 -11.4465 1.49566
lowerneck -26.9622 -7.30069 -7.79547
upperneck 4.92922 -8.58263 6.48358
head 6.2811 -4.07249 2.20513
rclavicle 3.45885e-014 7.95139e-016
rhumerus -52.9773 39.0816 -107.27
rradius 34.4666
rwrist -16.0392
rhand -32.4687 -8.93519
rfingers 7.12502
rthumb -5.70127 -38.8385
lclavicle 3.45885e-014 7.95139e-016
lhumerus -228.775 -190.314 258.181
lradius 46.2918
lwrist 62.4382
lhand -36.2556 -2.47731
lfingers 7.12502
lthumb -9.3564 27.295
rfemur -63.9977 -64.4493 21.1546
rtibia 149.871
rfoot -17.6815 13.1038
rtoes -30.9343
lfemur -63.5317 12.3067 -24.3617
ltibia 111.228
lfoot 5.8855 3.10167
ltoes 28.5564
340
root -1.0768 2.44796 25.6494 -976.187 -2.36686 -883.029
lowerback 70.3303 0.442811 18.6501
upperback 22.1631 -6.58657 6.78338
thorax 5.78757 -11.4846 1.54401
lowerneck -26.9832 -7.19723 -7.54486
upperneck 5.07375 -8.50047 6.3375
head 6.30925 -4.03209 2.12898
rclavicle -1.11319e-014 5.40694e-014
rhumerus -53.4913 39.4277 -107.532
rradius 34.9228
rwrist -16.4214
rhand -32.8443 -9.16904
rfingers 7.12502
rthumb -6.06391 -39.0623
lclavicle -1.11319e-014 5.40694e-014
lhumerus -229.058 -190.028 258.321
lradius 46.4094
lwrist 62.7547
lhand -36.3248 -2.26765
lfingers 7.12502
lthumb -9.42316 27.5017
rfemur -64.0728 -64.4245 21.7366
rtibia 149.856
rfoot -17.3791 13.0502
rtoes -30.2379
lfemur -63.3382 12.5467 -23.9349
ltibia 111.175
lfoot 6.44692 3.14532
ltoes 29.4026
341
root -1.05817 2.43589 25.6435 -976.365 -2.03216 -883.098
lowerback 70.26 0.496546 18.689
upperback 22.1794 -6.56743 6.85569
thorax 5.81344 -11.5156 1.59075
lowerneck -26.9359 -7.10149 -7.36676
upperneck 5.18006 -8.41607 6.25927
head 6.32182 -3.9877 2.08833
rclavicle -2.94201e-014 -1.98785e-014
rhumerus -53.9755 39.7237 -107.74
rradius 35.3643
rwrist -16.6254
rhand -33.0552 -9.39089
rfingers 7.12502
rthumb -6.26751 -39.2782
lclavicle -2.94201e-014 -1.98785e-014
lhumerus -229.354 -189.673 258.488
lradius 46.5579
lwrist 63.1674
lhand -36.3811 -2.10835
lfingers 7.12502
lthumb -9.47755 27.6585
rfemur -64.0011 -64.5142 22.1991
rtibia 149.874
rfoot -17.1628 12.9174
rtoes -29.6123
lfemur -63.1138 12.8122 -23.4592
ltibia 111.127
lfoot 7.01596 3.13151
ltoes 30.5789
342
root -1.03975 2.42336 25.6369 -976.498 -1.72267 -883.166
lowerback 70.1325 0.549233 18.7292
upperback 22.2164 -6.5496 6.91494
thorax 5.85858 -11.5357 1.61559
lowerneck -26.8839 -7.04699 -7.25662
upperneck 5.2632 -8.37385 6.24586
head 6.33489 -3.96093 2.07352
rclavicle -3.37934e-014 -2.14687e-014
rhumerus -54.4275 40.005 -107.947
rradius 35.8264
rwrist -16.8222
rhand -33.206 -9.66174
rfingers 7.12502
rthumb -6.41307 -39.5446
lclavicle -3.37934e-014 -2.14687e-014
lhumerus -229.586 -189.35 258.629
lradius 46.6542
lwrist 63.4907
lhand -36.4394 -1.97294
lfingers 7.12502
lthumb -9.53376 27.7914
rfemur -64.2178 -64.411 22.8695
rtibia 149.925
rfoot -16.8836 12.7018
rtoes -28.6817
lfemur -62.9531 13.028 -23.0353
ltibia 111.087
lfoot 7.63437 3.11831
ltoes 31.5957
343
root -1.02113 2.41137 25.6288 -976.656 -1.42903 -883.262
lowerback 70.0813 0.628852 18.709
upperback 22.2104 -6.51306 6.98245
thorax 5.84949 -11.5558 1.68235
lowerneck -26.7495 -6.98122 -7.19335
upperneck 5.32381 -8.30278 6.22938
head 6.32861 -3.92215 2.07102
rclavicle 3.10104e-014 -3.02153e-014
rhumerus -54.9752 40.3349 -108.205
rradius 36.2732
rwrist -17.0306
rhand -33.2628 -9.88416
rfingers 7.12502
rthumb -6.46791 -39.7654
lclavicle 3.10104e-014 -3.02153e-014
lhumerus -229.889 -189.103 258.747
lradius 46.7545
lwrist 63.7864
lhand -36.4547 -1.76872
lfingers 7.12502
lthumb -9.54858 27.9949
rfemur -64.4283 -64.1384 23.4902
rtibia 149.98
rfoot -16.6012 12.4757
rtoes -27.9333
lfemur -62.7605 13.2522 -22.6052
ltibia 111.08
lfoot 8.19957 3.06677
ltoes 32.2711
344
root -1.00272 2.39851 25.6205 -976.763 -1.16561 -883.364
lowerback 69.9328 0.722239 18.69
upperback 22.2656 -6.49047 7.03206
thorax 5.906 -11.5737 1.71321
lowerneck -26.7073 -6.93413 -7.11574
upperneck 5.40728 -8.26438 6.25232
head 6.34663 -3.89496 2.07225
rclavicle -7.35503e-014 -1.11319e-014
rhumerus -55.3568 40.6004 -108.376
rradius 36.6798
rwrist -17.1116
rhand -33.2473 -10.1377
rfingers 7.12502
rthumb -6.45296 -40.0194
lclavicle -7.35503e-014 -1.11319e-014
lhumerus -230.089 -188.841 258.851
lradius 46.8548
lwrist 64.0481
lhand -36.4817 -1.59597
lfingers 7.12502
lthumb -9.57456 28.1665
rfemur -65.0651 -63.4486 24.4222
rtibia 150.029
rfoot -16.2047 12.2936
rtoes -27.414
lfemur -62.6413 13.4267 -22.2268
ltibia 111.077
lfoot 8.71698 3.1157
ltoes 32.6169
345
root -0.984593 2.38505 25.6113 -976.91 -0.922263 -883.476
lowerback 69.8753 0.807581 18.6383
upperback 22.2752 -6.47601 7.08571
thorax 5.91133 -11.6049 1.78001
lowerneck -26.6177 -6.88638 -7.10383
upperneck 5.48371 -8.20543 6.28282
head 6.35704 -3.85887 2.09001
rclavicle 3.06128e-014 7.95139e-015
rhumerus -55.7408 40.8425 -108.508
rradius 37.0385
rwrist -17.2118
rhand -33.1707 -10.2828
rfingers 7.12502
rthumb -6.37905 -40.1667
lclavicle 3.06128e-014 7.95139e-015
lhumerus -230.345 -188.746 258.911
lradius 46.9219
lwrist 64.2117
lhand -36.5063 -1.38268
lfingers 7.12502
lthumb -9.59828 28.3787
rfemur -65.7178 -62.5166 25.3384
rtibia 150.046
rfoot -15.7532 12.0876
rtoes -27.134
lfemur -62.4838 13.5911 -21.866
ltibia 111.088
lfoot 9.16469 3.1313
ltoes 32.6083
